<svg width="49px" height="65px" viewBox="0 0 49 65" version="1.1" xmlns="http://www.w3.org/2000/svg" xmlns:xlink="http://www.w3.org/1999/xlink">
    <defs>
        <polygon id="path-1" points="0 0 49 0 49 65 0 65"></polygon>
    </defs>
    <g id="Main-Design" stroke="none" stroke-width="1" fill="none" fill-rule="evenodd">
        <g id="Carrers_01" transform="translate(-653.000000, -1033.000000)">
            <g id="Group-28" transform="translate(543.000000, 983.000000)">
                <g id="Group-20" transform="translate(49.000000, 0.000000)">
                    <g id="Group-3" transform="translate(61.000000, 50.000000)">
                        <mask id="mask-2" fill="white">
                            <use xlink:href="#path-1"></use>
                        </mask>
                        <g id="Clip-2"></g>
                        <path d="M46.557422,58.6587289 C45.4699519,60.5448706 42.1826646,61.2070494 37.5392382,60.4758046 C34.0749705,59.8720114 30.6974162,58.8481263 27.4804946,57.4269338 C28.5118144,56.8993268 29.5473987,56.3368308 30.5765861,55.7437179 C34.5511829,53.4752213 38.2571106,50.7631361 41.6240035,47.6601517 C46.122434,52.3124922 47.8161865,56.4763867 46.5588435,58.6587289 L46.557422,58.6587289 Z M10.024111,46.2503516 C11.9559698,44.4596206 14.0178985,42.8155658 16.1914173,41.3295795 L16.1914173,41.7176305 L17.4771908,41.7176305 L17.4771908,43.2648506 L16.1914173,43.2648506 L16.1914173,45.2891242 L17.4771908,45.2891242 L17.4771908,46.8363443 L16.1914173,46.8363443 L16.1914173,48.8606179 L34.0237954,48.8606179 L34.0237954,46.8377683 L32.7380219,46.8377683 L32.7380219,45.2898362 L34.0237954,45.2898362 L34.0237954,43.2655626 L32.7380219,43.2655626 L32.7380219,41.7183425 L34.0237954,41.7183425 L34.0237954,41.3295795 C36.1937604,42.8134297 38.2507137,44.4553485 40.1790187,46.2425193 C36.9436173,49.215204 33.3841071,51.814078 29.5687216,53.991436 C28.0832232,54.8458603 26.5827987,55.6397629 25.1008541,56.3489351 C23.6189095,55.6369148 22.1277249,54.8501324 20.6457803,53.992148 C16.8247087,51.8219102 13.260934,49.2244603 10.024111,46.2503516 L10.024111,46.2503516 Z M14.8374103,30.1750699 L14.7002327,30.0554505 C14.5829565,29.9529195 14.4671018,29.8503886 14.3512472,29.7549779 C7.85627839,23.8067605 7.40352121,13.708889 13.3419612,7.20173575 C19.2796903,0.694582477 29.3597568,0.241737584 35.8547256,6.18995495 C42.3511159,12.1388843 42.8031623,22.2360438 36.8647224,28.7431971 C36.5434567,29.0956471 36.2065542,29.4331447 35.8547256,29.7549779 C35.7267879,29.863205 35.5981395,29.9785523 35.4673588,30.0953236 L35.3657194,30.1885983 C32.6669454,32.6450682 31.0144173,36.0478131 30.7507235,39.6912208 L19.4595138,39.6912208 C19.1915555,36.043541 17.536895,32.637236 14.8374103,30.1750699 L14.8374103,30.1750699 Z M19.4978951,43.2662746 L19.4978951,41.7219026 L30.7173176,41.7219026 L30.7173176,43.2691227 L19.4978951,43.2662746 Z M19.4978951,46.8377683 L30.7173176,46.8377683 L30.7173176,45.2905482 L19.4978951,45.2905482 L19.4978951,46.8377683 Z M46.5588435,33.8469584 C47.8865522,36.14892 46.0023147,40.3042703 41.6325327,44.8120706 C38.9621893,42.3534646 36.0715088,40.1476258 32.9953188,38.223035 C33.4594482,35.9965476 34.5362569,33.9437932 36.1034933,32.2976023 C41.4576845,31.1840026 45.3569403,31.760027 46.5588435,33.8455344 L46.5588435,33.8469584 Z M16.1907065,58.5540619 C17.4082466,58.5540619 18.3947881,59.542346 18.3947881,60.7613247 C18.3947881,61.9803034 17.4082466,62.9685876 16.1907065,62.9685876 C14.9760094,62.9685876 13.9901787,61.9831515 13.9880464,60.7655969 C13.9894679,59.5466182 14.9738771,58.557622 16.1907065,58.5540619 L16.1907065,58.5540619 Z M4.22782406,29.6588552 C5.44536417,29.6588552 6.43190572,30.6471393 6.43190572,31.866118 C6.43190572,33.0850967 5.44536417,34.0733809 4.22782406,34.0733809 C3.01099471,34.0733809 2.02516393,33.0850967 2.02516393,31.866118 C2.02871775,30.6485633 3.01241624,29.6617032 4.22782406,29.6588552 L4.22782406,29.6588552 Z M48.3087465,32.8337536 C46.8694478,30.3374105 43.4677274,29.3135253 38.585484,29.8496766 C45.1287848,22.3898402 44.396697,11.0288447 36.9500141,4.47398609 C29.504042,-2.08087255 18.1630788,-1.34749167 11.619778,6.11163272 C5.16176901,13.4739223 5.77871286,24.6597608 13.0057694,31.2644609 L13.0434399,31.2979258 C13.1507654,31.3869284 13.2559586,31.4816271 13.3689702,31.5784618 L13.4926433,31.6874009 C15.388253,33.4218823 16.6910849,35.7096034 17.2163401,38.2273071 C14.1380177,40.153322 11.2444942,42.3612968 8.57344007,44.8220389 C5.30960809,41.4399426 3.49076095,38.291389 3.26758081,35.9929875 C5.54416048,36.5284268 7.8235832,35.1129305 8.35807834,32.8323295 C8.89257347,30.5510166 7.47957304,28.2682796 5.2022826,27.7328403 C2.92570293,27.1974011 0.646280205,28.6128974 0.111785072,30.8934983 C-0.224406681,32.3317793 0.20915985,33.8419743 1.2582487,34.8800998 C0.929164597,38.0222453 3.13466779,42.0985614 7.13271981,46.2353991 C2.12396023,51.3882899 0.00801341006,56.379552 1.90504467,59.6719337 C3.08846807,61.7254002 5.65575055,62.7898705 9.29131253,62.7891585 C10.3205,62.7834623 11.3475551,62.7094122 12.3660811,62.5670082 C13.3597303,64.6831324 15.87797,65.5916703 17.990363,64.5962659 C20.1020452,63.6008616 21.0096919,61.0781738 20.0153319,58.9620495 C19.0216827,56.8459253 16.5041538,55.9373874 14.39105,56.9327917 C12.9702312,57.6028028 12.036997,59.0069068 11.9680528,60.5790475 C7.69351325,61.1358474 4.68839965,60.4515959 3.65210456,58.6565928 C2.39476162,56.4749627 4.08638186,52.3132042 8.58054772,47.6629998 C11.9474406,50.7674082 15.6547898,53.4780694 19.6329404,55.7430059 C25.7007396,59.2546898 31.9469407,61.6456539 37.2236586,62.4758696 C38.4454633,62.6759473 39.6814833,62.7806142 40.9189248,62.7884465 C44.5544868,62.7884465 47.1239016,61.720416 48.3066142,59.6712217 C50.2036455,56.3774159 48.0855663,51.3847298 43.0753852,46.230415 C48.2533068,40.8952471 50.159578,36.044965 48.3087465,32.8337536 L48.3087465,32.8337536 Z" id="Fill-1" fill="#FFFFFF" mask="url(#mask-2)"></path>
                    </g>
                </g>
            </g>
        </g>
    </g>
</svg>