<?xml version="1.0" encoding="UTF-8"?>
<svg width="50px" height="75px" viewBox="0 0 50 75" version="1.1" xmlns="http://www.w3.org/2000/svg" xmlns:xlink="http://www.w3.org/1999/xlink">
    <!-- Generator: Sketch 64 (93537) - https://sketch.com -->
    <title>Group</title>
    <desc>Created with Sketch.</desc>
    <g id="Main-Design" stroke="none" stroke-width="1" fill="none" fill-rule="evenodd" stroke-linecap="round" stroke-linejoin="round">
        <g id="Carrers_01" transform="translate(-1255.000000, -1029.000000)" stroke="#FFFFFF">
            <g id="Group-29" transform="translate(1146.000000, 983.000000)">
                <g id="Group-17" transform="translate(49.000000, 0.000000)">
                    <g id="Group" transform="translate(61.000000, 47.000000)">
                        <path d="M44,20.5 C44,31.8223077 34.8191538,41 23.5,41 C12.1776923,41 3,31.8223077 3,20.5 C3,9.17769231 12.1776923,0 23.5,0 C34.8191538,0 44,9.17769231 44,20.5 Z" id="Stroke-928" stroke-width="2"></path>
                        <path d="M40.3488,34 C40.3488,34 48,60.4628305 48,69.8657076 C43.7312,65.6876959 36.8,63.5971229 36.8,63.5971229 L28.8,73 C28.8,73 28.4,45.9667283 24,41.6570763" id="Stroke-930" stroke-width="2"></path>
                        <path d="M7.6512,34 C7.6512,34 0,60.4628305 0,69.8657076 C4.2688,65.6876959 11.2,63.5971229 11.2,63.5971229 L19.2,73 C19.2,73 19.6,45.9667283 24,41.6570763" id="Stroke-932" stroke-width="2"></path>
                        <polygon id="Stroke-934" stroke-width="1.5" points="18.0589898 22.2845077 10 15.4676641 20.3320381 14.3351834 23.5015895 6 26.6679619 14.3351834 37 15.4676641 28.9410102 22.2845077 31.1314023 32 23.5015895 26.6199324 15.8717768 32"></polygon>
                    </g>
                </g>
            </g>
        </g>
    </g>
</svg>